#!OML:ASF I:\Actors\actors\Patient Classification 2\Patient 1\Session 1\actor1.ASF
:FULLY-SPECIFIED
:DEGREES
420
root -0.581483 18.1131 6.04611 4.53256 -25.9808 -2.28767
lowerback 0.0401358 -6.00821 -0.995711
upperback -2.48099 -8.00485 2.07485
thorax -2.14079 -3.967 2.80493
lowerneck -8.71351 2.62721 10.8851
upperneck 24.5601 0.293257 4.10455
head 9.2994 1.43607 -0.399257
rclavicle 5.97317e-014 -3.18055e-015
rhumerus 14.0112 61.0688 -25.7974
rradius 128.065
rwrist -51.9605
rhand -7.46765 -52.5882
rfingers 7.12502
rthumb 18.421 -81.736
lclavicle 5.97317e-014 -3.18055e-015
lhumerus 13.8819 12.1344 75.5078
lradius 86.2145
lwrist 80.2909
lhand -38.2193 -10.0644
lfingers 7.12502
lthumb -11.2508 19.6139
rfemur 8.55124 13.6015 14.1045
rtibia -18.3017
rfoot 1.07022 -7.71855
rtoes -2.98794
lfemur 12.1424 14.912 -13.096
ltibia 1.59028e-015
lfoot -17.576 13.772
ltoes 4.34867
421
root -0.585536 18.1123 6.03869 4.47873 -25.9455 -2.32435
lowerback 0.184731 -5.90736 -0.861824
upperback -2.46603 -7.86872 2.03404
thorax -2.23672 -3.90017 2.70678
lowerneck -8.85787 2.61719 11.0732
upperneck 24.2708 0.317904 3.8566
head 9.22544 1.4309 -0.512869
rclavicle -1.86267e-014 9.34288e-015
rhumerus 11.5741 61.7934 -29.1545
rradius 126.351
rwrist -47.7223
rhand -8.17437 -47.5442
rfingers 7.12502
rthumb 17.7411 -76.7549
lclavicle -1.86267e-014 9.34288e-015
lhumerus 12.9807 11.2587 74.575
lradius 87.3395
lwrist 78.889
lhand -37.7792 -10.1126
lfingers 7.12502
lthumb -10.8263 19.5883
rfemur 8.62411 13.5886 14.1849
rtibia -18.3001
rfoot 1.05759 -7.73156
rtoes -2.84224
lfemur 12.1837 14.8787 -13.0187
ltibia -4.77083e-015
lfoot -17.5277 13.7962
ltoes 4.21637
422
root -0.591115 18.1119 6.03138 4.45938 -25.8827 -2.32533
lowerback 0.31144 -5.78744 -0.858873
upperback -2.49004 -7.70811 2.05728
thorax -2.33752 -3.81808 2.74361
lowerneck -9.02143 2.56443 11.0902
upperneck 23.9759 0.298731 3.66513
head 9.14826 1.39607 -0.583559
rclavicle 5.66567e-014 -1.09332e-014
rhumerus 8.76559 62.0106 -33.0821
rradius 124.258
rwrist -42.2561
rhand -4.85955 -46.7254
rfingers 7.12502
rthumb 20.9283 -75.6164
lclavicle 5.66567e-014 -1.09332e-014
lhumerus 12.1348 10.491 73.7971
lradius 88.5291
lwrist 77.6239
lhand -37.3915 -10.1014
lfingers 7.12502
lthumb -10.4523 19.6188
rfemur 8.65619 13.5365 14.2263
rtibia -18.3076
rfoot 1.01286 -7.7459
rtoes -2.70355
lfemur 12.1624 14.8227 -12.99
ltibia 1.11319e-014
lfoot -17.4275 13.852
ltoes 3.96203
423
root -0.597343 18.1116 6.0257 4.40599 -25.8329 -2.26395
lowerback 0.185931 -5.65194 -0.652981
upperback -2.3707 -7.52642 1.88137
thorax -2.20297 -3.73458 2.42968
lowerneck -9.24902 2.51893 11.1779
upperneck 23.5914 0.238321 3.61283
head 9.05371 1.35861 -0.621687
rclavicle 2.57519e-014 5.96354e-015
rhumerus 5.72094 62.4517 -37.5997
rradius 122.443
rwrist -38.9261
rhand -5.79547 -44.841
rfingers 7.12502
rthumb 20.029 -73.8287
lclavicle 2.57519e-014 5.96354e-015
lhumerus 11.5875 9.72226 72.7244
lradius 89.7148
lwrist 76.678
lhand -36.846 -10.3486
lfingers 7.12502
lthumb -9.92604 19.3974
rfemur 8.69489 13.4505 14.203
rtibia -18.304
rfoot 1.0078 -7.70709
rtoes -2.7064
lfemur 12.1634 14.7761 -13.0236
ltibia -3.97569e-014
lfoot -17.347 13.9101
ltoes 3.68121
424
root -0.602728 18.1115 6.0195 4.33834 -25.7638 -2.227
lowerback 0.308202 -5.48572 -0.631638
upperback -2.39263 -7.30312 1.92367
thorax -2.30086 -3.6216 2.47339
lowerneck -9.5795 2.38272 10.7875
upperneck 23.4826 0.0743844 3.69559
head 9.06308 1.25914 -0.545301
rclavicle 8.52445e-014 4.17448e-015
rhumerus 2.26228 63.4399 -42.1313
rradius 121.082
rwrist -37.7528
rhand -10.0994 -42.0435
rfingers 7.12502
rthumb 15.8879 -71.4117
lclavicle 8.52445e-014 4.17448e-015
lhumerus 10.9312 9.03663 71.9127
lradius 90.9662
lwrist 75.8306
lhand -36.4604 -10.6934
lfingers 7.12502
lthumb -9.55407 19.0699
rfemur 8.76048 13.4535 14.206
rtibia -18.2955
rfoot 0.965462 -7.74624
rtoes -2.54953
lfemur 12.1863 14.7092 -13.0279
ltibia 2.8625e-014
lfoot -17.3138 13.9547
ltoes 3.41422
425
root -0.609347 18.1114 6.01255 4.31117 -25.6435 -2.19586
lowerback 0.513358 -5.30994 -0.625012
upperback -2.52329 -7.06611 1.99768
thorax -2.55255 -3.49881 2.57235
lowerneck -9.76303 2.2737 10.5671
upperneck 23.3732 0.0055736 3.50406
head 9.04854 1.18946 -0.581613
rclavicle 1.01815e-014 1.15295e-014
rhumerus -1.82014 63.7596 -47.3502
rradius 119.512
rwrist -35.2506
rhand -9.92273 -40.3395
rfingers 7.12502
rthumb 16.0581 -69.6941
lclavicle 1.01815e-014 1.15295e-014
lhumerus 10.1444 8.28078 71.1017
lradius 92.3193
lwrist 75
lhand -36.1656 -11.0403
lfingers 7.12502
lthumb -9.26962 18.7359
rfemur 8.7839 13.4992 14.2127
rtibia -18.274
rfoot 0.842638 -7.8273
rtoes -2.39942
lfemur 12.1459 14.5964 -13.0343
ltibia -4.77083e-015
lfoot -17.278 14.0185
ltoes 3.33065
426
root -0.617092 18.1124 6.00937 4.3066 -25.4753 -2.15236
lowerback 0.491419 -5.10889 -0.528426
upperback -2.57136 -6.79537 1.99656
thorax -2.61345 -3.36458 2.51486
lowerneck -9.92608 2.17932 10.4483
upperneck 23.1194 -0.0456591 3.30407
head 8.98228 1.12971 -0.635869
rclavicle -2.47735e-014 4.96962e-015
rhumerus -5.92778 63.6465 -52.7342
rradius 117.955
rwrist -33.2175
rhand -9.18702 -38.501
rfingers 7.12502
rthumb 16.7664 -67.797
lclavicle -2.47735e-014 4.96962e-015
lhumerus 9.45445 7.44663 70.1931
lradius 93.7545
lwrist 74.2891
lhand -35.662 -11.5754
lfingers 7.12502
lthumb -8.78365 18.2218
rfemur 8.77988 13.4376 14.2034
rtibia -18.2213
rfoot 0.73815 -7.8235
rtoes -2.64779
lfemur 12.0715 14.4411 -13.0673
ltibia 5.40694e-014
lfoot -17.1964 14.1319
ltoes 3.09782
